# xmcd
# Copyright (C) 1995-1998 Ti Kan
#
# Track frame offsets:
#       150
#       9735
#       23745
#       39397
#       47250
#       57423
#       74802
#       83981
#       103793
#       118902
#       134046
#       143804
#       154445
#
# Disc length: 2288 seconds
#
# Revision: 0
# Processed by: cddbd v1.5.2PL0 Copyright (c) Steve Scherf et al.
# Submitted via: CD-Import v1.0
#
DISCID=bf08ee0d
DTITLE=Hans Gysi - Die Dünne Krankenschwester
DYEAR=1900
DGENRE=
TTITLE0=Tuschelbahn
TTITLE1=Wörter
TTITLE2=Anzeige
TTITLE3=Grüssen
TTITLE4=Heroischer Badmeister
TTITLE5=Kühe
TTITLE6=Das Herrenroulett
TTITLE7=Der Mensch
TTITLE8=Diie Dünne Krankenschwester
TTITLE9=Der Wilde Postmann
TTITLE10=Radarfalle
TTITLE11=Gift
TTITLE12=Kleine Schäden
EXTD=
EXTT0=
EXTT1=
EXTT2=
EXTT3=
EXTT4=
EXTT5=
EXTT6=
EXTT7=
EXTT8=
EXTT9=
EXTT10=
EXTT11=
EXTT12=
PLAYORDER=
